<?xml version="1.0" encoding="UTF-8" standalone="no"?>
<svg
   class="svglite"
   width="124.44pt"
   height="144.00pt"
   viewBox="0 0 124.44 144.00"
   version="1.1"
   id="svg15178"
   sodipodi:docname="metabodecon.svg"
   inkscape:version="1.2.2 (732a01da63, 2022-12-09)"
   xmlns:inkscape="http://www.inkscape.org/namespaces/inkscape"
   xmlns:sodipodi="http://sodipodi.sourceforge.net/DTD/sodipodi-0.dtd"
   xmlns="http://www.w3.org/2000/svg"
   xmlns:svg="http://www.w3.org/2000/svg">
  <sodipodi:namedview
     id="namedview15180"
     pagecolor="#ffffff"
     bordercolor="#000000"
     borderopacity="0.25"
     inkscape:showpageshadow="2"
     inkscape:pageopacity="0.0"
     inkscape:pagecheckerboard="0"
     inkscape:deskcolor="#d1d1d1"
     inkscape:document-units="pt"
     showgrid="false"
     showguides="true"
     inkscape:zoom="6.1294599"
     inkscape:cx="17.29353"
     inkscape:cy="70.968733"
     inkscape:window-width="2880"
     inkscape:window-height="1526"
     inkscape:window-x="2869"
     inkscape:window-y="-11"
     inkscape:window-maximized="1"
     inkscape:current-layer="svg15178">
    <sodipodi:guide
       position="1.08,36.67"
       orientation="0,-1"
       id="guide16165"
       inkscape:locked="false" />
    <sodipodi:guide
       position="62.150001,142.45"
       orientation="1,0"
       id="guide16167"
       inkscape:locked="false" />
  </sodipodi:namedview>
  <defs
     id="defs15117">
    <style
       type="text/css"
       id="style15115"><![CDATA[
    .svglite line, .svglite polyline, .svglite polygon, .svglite path, .svglite rect, .svglite circle {
      fill: none;
      stroke: #000000;
      stroke-linecap: round;
      stroke-linejoin: round;
      stroke-miterlimit: 10.00;
    }
    .svglite text {
      white-space: pre;
    }
  ]]></style>
  </defs>
  <defs
     id="defs15124">
    <clipPath
       id="cpMC4wMHwxMjQuNDR8MC4wMHwxNDQuMDA=">
      <rect
         x="0.00"
         y="0.00"
         width="124.44"
         height="144.00"
         id="rect15121" />
    </clipPath>
  </defs>
  <defs
     id="defs15131">
    <clipPath
       id="cpMC4wMHwxMjQuNDR8MC4xNHwxNDMuODY=">
      <rect
         x="0.00"
         y="0.14"
         width="124.44"
         height="143.71"
         id="rect15128" />
    </clipPath>
  </defs>
  <defs
     id="defs15142">
    <clipPath
       id="cpMC4wMHwxMjQuNDR8MC4xNHwxNDQuMDA=">
      <rect
         x="0.00"
         y="0.14"
         width="124.44"
         height="143.85"
         id="rect15139" />
    </clipPath>
  </defs>
  <polygon
     points="123.22,36.81 62.15,1.55 1.08,36.81 1.08,107.33 62.15,142.59 123.22,107.33 "
     style="display:inline;stroke:#003399;stroke-width:2.56;stroke-linecap:butt;fill:#feffe5;fill-opacity:1"
     id="polygon15150" />
  <path
     d="m 10.36,41.28 v 0 l 0.04,-0.01 0.04,-0.01 h 0.03 l 0.04,-0.01 h 0.04 l 0.03,-0.01 h 0.04 l 0.03,-0.01 h 0.04 0.03 v 0 l 0.04,-0.01 h 0.04 0.03 l 0.04,-0.01 h 0.04 0.04 0.03 0.04 0.04 0.04 v 0 h 0.03 0.04 0.04 0.03 0.04 0.03 l 0.03,0.01 h 0.04 0.03 l 0.03,0.01 v 0 h 0.03 0.04 l 0.03,0.01 h 0.04 l 0.03,0.01 h 0.04 l 0.04,0.01 h 0.03 l 0.04,0.01 0.04,0.01 v 0 l 0.01,0.05 0.01,0.06 0.01,0.06 0.01,0.06 0.01,0.07 0.01,0.07 0.01,0.07 0.01,0.08 0.01,0.08 0.01,0.08 v 0 l 0.01,0.08 0.01,0.08 0.01,0.08 v 0.07 l 0.01,0.07 v 0.07 l 0.01,0.07 v 0.06 0.06 0.06 0 l 0.03,-0.06 0.04,-0.06 0.03,-0.06 0.03,-0.06 0.04,-0.06 0.04,-0.06 0.04,-0.05 0.04,-0.06 0.04,-0.06 0.05,-0.05 v 0 l 0.05,-0.06 0.05,-0.05 0.05,-0.06 0.05,-0.05 0.05,-0.05 0.06,-0.05 0.05,-0.05 0.06,-0.05 0.06,-0.05 0.06,-0.04 v 0 l 0.07,-0.05 0.07,-0.04 0.07,-0.04 0.07,-0.04 0.07,-0.03 0.07,-0.04 0.08,-0.03 0.08,-0.03 0.08,-0.03 0.08,-0.03 v 0 l 0.08,-0.03 0.08,-0.02 0.09,-0.02 0.09,-0.02 0.09,-0.01 0.09,-0.02 0.09,-0.01 h 0.1 l 0.09,-0.01 h 0.1 v 0 l 0.2,0.01 0.19,0.01 0.18,0.02 0.17,0.03 0.17,0.04 0.15,0.05 0.14,0.05 0.13,0.07 0.13,0.07 0.11,0.08 v 0 l 0.11,0.08 0.11,0.1 0.1,0.1 0.09,0.1 0.09,0.11 0.08,0.12 0.08,0.13 0.07,0.13 0.07,0.14 0.06,0.15 v 0 l 0.03,-0.06 0.04,-0.06 0.03,-0.05 0.04,-0.06 0.04,-0.06 0.05,-0.06 0.04,-0.06 0.04,-0.05 0.05,-0.06 0.05,-0.06 v 0 l 0.05,-0.06 0.05,-0.05 0.05,-0.06 0.06,-0.05 0.05,-0.05 0.06,-0.05 0.06,-0.05 0.06,-0.05 0.06,-0.05 0.06,-0.04 v 0 l 0.06,-0.05 0.07,-0.04 0.06,-0.04 0.07,-0.04 0.07,-0.03 0.07,-0.04 0.07,-0.03 0.08,-0.03 0.07,-0.03 0.08,-0.03 v 0 l 0.08,-0.03 0.08,-0.02 0.08,-0.02 0.09,-0.02 0.09,-0.01 0.09,-0.02 0.09,-0.01 h 0.09 l 0.1,-0.01 h 0.1 v 0 l 0.29,0.01 0.28,0.03 0.26,0.04 0.25,0.06 0.23,0.08 0.21,0.09 0.19,0.11 0.18,0.13 0.16,0.14 0.15,0.17 v 0 l 0.13,0.17 0.12,0.2 0.11,0.21 0.09,0.23 0.07,0.24 0.07,0.27 0.05,0.27 0.03,0.3 0.02,0.31 0.01,0.32 v 5.58 0 l -0.04,0.01 -0.04,0.01 h -0.04 l -0.04,0.01 H 22.2 l -0.04,0.01 h -0.05 l -0.04,0.01 h -0.05 l -0.05,0.01 v 0 H 21.92 21.88 21.83 L 21.79,50.1 H 21.75 21.7 21.66 21.62 21.58 21.55 v 0 H 21.51 21.47 21.43 21.39 21.34 21.3 l -0.04,-0.01 h -0.05 -0.04 -0.05 v 0 l -0.05,-0.01 h -0.04 l -0.04,-0.01 h -0.04 l -0.04,-0.01 h -0.05 l -0.04,-0.01 h -0.03 l -0.04,-0.01 -0.04,-0.01 v -5.08 0 -0.23 L 20.69,44.5 20.68,44.29 20.65,44.1 20.62,43.92 20.58,43.75 20.53,43.59 20.48,43.45 20.42,43.31 20.35,43.19 v 0 l -0.08,-0.11 -0.08,-0.11 -0.1,-0.09 -0.1,-0.07 -0.11,-0.07 -0.13,-0.05 -0.13,-0.04 -0.14,-0.03 -0.15,-0.02 -0.16,-0.01 v 0 L 19,42.6 l -0.16,0.02 -0.16,0.03 -0.15,0.04 -0.15,0.06 -0.14,0.07 -0.13,0.08 -0.12,0.1 -0.12,0.1 -0.11,0.12 v 0 l -0.11,0.14 -0.09,0.14 -0.07,0.16 -0.07,0.16 -0.06,0.18 -0.05,0.2 -0.04,0.2 -0.02,0.22 -0.02,0.22 v 0.24 4.95 0 l -0.04,0.01 -0.04,0.01 h -0.04 l -0.04,0.01 h -0.04 l -0.05,0.01 h -0.04 l -0.05,0.01 h -0.04 l -0.05,0.01 v 0 h -0.04 -0.05 -0.04 l -0.04,0.01 h -0.04 -0.04 -0.04 -0.04 -0.04 -0.04 v 0 H 16.35 16.31 16.27 16.23 16.19 16.15 L 16.1,50.09 h -0.04 -0.05 -0.05 v 0 l -0.04,-0.01 h -0.04 l -0.05,-0.01 h -0.04 l -0.04,-0.01 h -0.04 l -0.04,-0.01 h -0.04 l -0.04,-0.01 -0.04,-0.01 v -5.2 0 -0.22 l -0.01,-0.22 -0.02,-0.2 -0.02,-0.18 -0.03,-0.18 -0.04,-0.17 -0.04,-0.15 -0.06,-0.14 -0.05,-0.13 -0.07,-0.12 v 0 l -0.07,-0.11 -0.08,-0.1 -0.09,-0.09 -0.1,-0.07 -0.1,-0.06 -0.12,-0.06 -0.12,-0.04 -0.13,-0.03 -0.13,-0.01 -0.15,-0.01 v 0 h -0.09 l -0.08,0.01 -0.08,0.01 -0.08,0.01 -0.08,0.02 -0.08,0.02 -0.08,0.02 -0.08,0.03 -0.08,0.03 -0.07,0.04 v 0 l -0.08,0.04 -0.07,0.04 -0.07,0.05 -0.07,0.05 -0.07,0.05 -0.06,0.06 -0.07,0.06 -0.06,0.07 -0.06,0.07 -0.06,0.07 v 0 l -0.05,0.08 -0.05,0.08 -0.05,0.09 -0.05,0.08 -0.05,0.1 -0.04,0.1 -0.04,0.1 -0.04,0.1 -0.04,0.11 -0.03,0.12 v 0 l -0.03,0.11 -0.03,0.12 -0.02,0.12 -0.02,0.13 -0.02,0.13 -0.01,0.13 -0.01,0.14 -0.01,0.14 v 0.14 l -0.01,0.15 v 4.47 0 l -0.03,0.01 -0.04,0.01 h -0.04 l -0.04,0.01 h -0.05 l -0.04,0.01 h -0.04 l -0.05,0.01 h -0.05 l -0.04,0.01 v 0 H 11.58 11.54 11.5 l -0.05,0.01 h -0.04 -0.04 -0.04 -0.04 -0.04 -0.03 v 0 H 11.18 11.14 11.1 11.06 11.02 10.97 l -0.04,-0.01 h -0.05 -0.04 -0.05 v 0 L 10.74,50.08 H 10.7 L 10.65,50.07 H 10.61 L 10.56,50.06 H 10.52 L 10.48,50.05 H 10.44 L 10.4,50.04 10.36,50.03 Z"
     style="display:inline;fill:#cc0000;fill-rule:nonzero;stroke:none;stroke-width:0.75"
     id="path15152" />
  <path
     d="m 26.21,46.07 v 0 l 0.01,0.28 0.03,0.27 0.04,0.25 0.05,0.23 0.07,0.22 0.08,0.2 0.09,0.19 0.11,0.17 0.12,0.15 0.13,0.14 v 0 l 0.15,0.13 0.16,0.11 0.18,0.1 0.19,0.09 0.2,0.07 0.22,0.06 0.23,0.05 0.24,0.03 0.26,0.02 0.27,0.01 v 0 h 0.24 l 0.24,-0.02 0.24,-0.02 0.23,-0.03 0.23,-0.04 0.23,-0.04 0.23,-0.06 0.22,-0.06 0.22,-0.08 0.22,-0.08 v 0 l 0.03,0.06 0.03,0.05 0.02,0.06 0.03,0.06 0.02,0.06 0.02,0.06 0.02,0.07 0.02,0.07 0.02,0.07 0.02,0.07 v 0 l 0.01,0.08 0.02,0.07 0.01,0.07 0.01,0.07 0.01,0.07 0.01,0.07 0.01,0.08 0.01,0.07 v 0.07 l 0.01,0.07 v 0 l -0.11,0.05 -0.12,0.04 -0.12,0.04 -0.12,0.04 -0.12,0.04 -0.13,0.04 -0.13,0.03 -0.13,0.03 -0.13,0.03 -0.14,0.02 v 0 l -0.13,0.02 -0.14,0.02 -0.14,0.02 -0.14,0.02 -0.15,0.01 -0.15,0.01 -0.15,0.01 h -0.16 l -0.16,0.01 h -0.16 v 0 H 28.7 l -0.23,-0.01 -0.22,-0.02 -0.21,-0.02 -0.21,-0.03 -0.2,-0.04 -0.2,-0.04 -0.19,-0.05 -0.18,-0.05 -0.17,-0.06 v 0 l -0.17,-0.08 -0.16,-0.07 -0.16,-0.08 -0.15,-0.09 -0.14,-0.09 -0.14,-0.1 -0.13,-0.1 -0.13,-0.1 -0.12,-0.12 -0.12,-0.11 v 0 L 25.37,48.85 25.26,48.72 25.17,48.59 25.08,48.45 25,48.31 24.92,48.17 24.85,48.02 24.78,47.86 24.72,47.7 24.67,47.54 v 0 L 24.62,47.37 24.58,47.2 24.54,47.03 24.51,46.85 24.48,46.67 24.45,46.48 24.44,46.3 24.42,46.11 v -0.2 l -0.01,-0.19 v 0 l 0.01,-0.2 v -0.19 l 0.01,-0.19 0.02,-0.18 0.02,-0.18 0.03,-0.18 0.03,-0.18 0.04,-0.17 0.04,-0.18 0.04,-0.16 v 0 l 0.06,-0.17 0.06,-0.17 0.06,-0.15 0.07,-0.16 0.07,-0.15 0.08,-0.14 0.09,-0.14 0.09,-0.14 0.09,-0.13 0.1,-0.12 v 0 l 0.11,-0.13 0.11,-0.11 0.11,-0.12 0.12,-0.1 0.13,-0.11 0.13,-0.09 0.13,-0.09 0.14,-0.09 0.15,-0.08 0.15,-0.07 v 0 l 0.16,-0.07 0.17,-0.07 0.17,-0.05 0.17,-0.05 0.18,-0.04 0.19,-0.04 0.19,-0.02 0.2,-0.02 0.21,-0.01 0.2,-0.01 v 0 l 0.18,0.01 h 0.18 l 0.17,0.02 0.16,0.02 0.16,0.03 0.16,0.03 0.15,0.04 0.15,0.05 0.14,0.05 0.14,0.06 v 0 l 0.14,0.06 0.13,0.07 0.12,0.08 0.12,0.07 0.12,0.09 0.11,0.08 0.11,0.1 0.1,0.09 0.1,0.11 0.1,0.1 v 0 l 0.09,0.11 0.08,0.11 0.08,0.12 0.08,0.12 0.07,0.13 0.07,0.13 0.06,0.13 0.06,0.14 0.06,0.15 0.05,0.14 v 0 l 0.04,0.15 0.04,0.15 0.04,0.16 0.03,0.15 0.03,0.16 0.02,0.16 0.01,0.17 0.02,0.17 v 0.17 l 0.01,0.17 v 0 0.05 l -0.01,0.05 v 0.04 0.05 0.06 0.05 0.05 l -0.01,0.05 v 0.06 0.05 0 l -0.01,0.05 v 0.05 0.05 l -0.01,0.04 v 0.05 0.04 l -0.01,0.05 V 46 46.04 l -0.01,0.03 z m 4.33,-1.26 v 0 -0.09 -0.1 l -0.01,-0.09 -0.01,-0.09 -0.01,-0.09 -0.02,-0.09 -0.01,-0.09 -0.03,-0.09 -0.02,-0.09 -0.02,-0.08 v 0 L 30.38,43.82 30.35,43.73 30.32,43.65 30.29,43.57 30.25,43.49 30.21,43.42 30.17,43.34 30.13,43.27 30.08,43.2 30.03,43.14 v 0 L 29.98,43.07 29.93,43.01 29.87,42.96 29.81,42.9 29.75,42.85 29.69,42.8 29.62,42.75 29.55,42.71 29.48,42.66 29.4,42.63 v 0 L 29.32,42.59 29.24,42.55 29.16,42.52 29.07,42.49 28.98,42.47 28.89,42.45 28.8,42.44 28.7,42.43 28.6,42.42 h -0.11 v 0 l -0.2,0.01 -0.19,0.02 -0.19,0.03 -0.17,0.04 -0.17,0.06 -0.15,0.07 -0.15,0.08 -0.14,0.1 -0.12,0.1 -0.12,0.12 v 0 l -0.11,0.13 -0.09,0.15 -0.09,0.15 -0.08,0.16 -0.07,0.17 -0.06,0.18 -0.06,0.19 -0.04,0.2 -0.04,0.21 -0.03,0.22 z"
     style="display:inline;fill:#cc0000;fill-rule:nonzero;stroke:none;stroke-width:0.75"
     id="path15154" />
  <path
     d="m 34.76,42.63 h -1.33 l -0.07,-0.24 2.94,-3.28 h 0.13 v 2.17 h 2.22 v 0 l 0.01,0.06 0.02,0.06 0.01,0.06 v 0.06 l 0.01,0.06 0.01,0.07 v 0.07 l 0.01,0.07 v 0.06 0.08 0 0.03 0.04 0.04 0.03 0.04 l -0.01,0.04 v 0.03 0.04 0.03 l -0.01,0.03 v 0 0.04 l -0.01,0.03 v 0.04 0.03 l -0.01,0.04 v 0.03 l -0.01,0.03 -0.01,0.04 v 0.03 l -0.01,0.04 h -2.22 v 3.99 0 0.14 0.14 l 0.01,0.12 v 0.13 0.11 l 0.01,0.12 0.01,0.1 v 0.1 l 0.01,0.1 0.01,0.08 v 0 l 0.02,0.09 0.01,0.08 0.02,0.07 0.02,0.08 0.02,0.06 0.02,0.07 0.02,0.06 0.03,0.06 0.02,0.05 0.03,0.05 v 0 l 0.03,0.04 0.03,0.04 0.04,0.04 0.03,0.04 0.04,0.03 0.04,0.03 0.04,0.02 0.05,0.03 0.04,0.02 0.05,0.02 v 0 l 0.05,0.01 0.06,0.01 0.06,0.01 0.05,0.01 0.07,0.01 h 0.06 l 0.07,0.01 h 0.07 l 0.07,0.01 h 0.07 v 0 h 0.06 l 0.06,-0.01 h 0.05 0.06 0.05 l 0.06,-0.01 h 0.05 l 0.05,-0.01 h 0.06 l 0.05,-0.01 v 0 l 0.05,-0.01 0.05,-0.01 0.05,-0.01 0.05,-0.01 0.04,-0.01 0.05,-0.01 0.04,-0.01 0.05,-0.01 0.04,-0.01 0.04,-0.01 v 0 l 0.02,0.07 0.02,0.07 0.02,0.07 0.02,0.07 0.01,0.06 0.02,0.08 0.01,0.07 0.01,0.07 v 0.07 l 0.01,0.07 v 0 0.07 l 0.01,0.07 v 0.07 l 0.01,0.06 v 0.07 0.06 l 0.01,0.06 v 0.06 0.06 0.05 0 l -0.07,0.02 -0.07,0.01 -0.07,0.02 -0.07,0.01 -0.07,0.01 -0.07,0.01 -0.07,0.02 h -0.08 l -0.07,0.01 -0.08,0.01 v 0 l -0.07,0.01 -0.08,0.01 -0.08,0.01 h -0.08 l -0.08,0.01 H 37.7 l -0.08,0.01 h -0.08 -0.08 -0.09 v 0 h -0.24 l -0.23,-0.02 -0.22,-0.03 -0.21,-0.04 -0.2,-0.06 -0.18,-0.06 -0.18,-0.08 -0.17,-0.09 -0.15,-0.1 -0.15,-0.12 v 0 L 35.31,49.45 35.2,49.3 35.09,49.14 35,48.97 34.93,48.78 34.87,48.57 34.82,48.35 34.79,48.12 34.77,47.86 34.76,47.59 Z"
     style="display:inline;fill:#cc0000;fill-rule:nonzero;stroke:none;stroke-width:0.75"
     id="path15156" />
  <path
     d="m 45.17,45.92 v 0 L 45.12,45.91 H 45.06 L 45.01,45.9 44.95,45.89 H 44.88 L 44.82,45.88 44.75,45.87 H 44.68 L 44.6,45.86 44.52,45.85 v 0 H 44.45 L 44.37,45.84 44.3,45.83 H 44.23 44.16 L 44.1,45.82 h -0.07 -0.06 -0.06 -0.05 v 0 h -0.21 l -0.2,0.01 -0.18,0.02 -0.18,0.03 -0.17,0.04 -0.15,0.04 -0.15,0.05 -0.14,0.06 -0.13,0.07 -0.11,0.07 v 0 l -0.11,0.08 -0.09,0.09 -0.08,0.1 -0.07,0.11 -0.06,0.12 -0.05,0.12 -0.04,0.13 -0.03,0.14 -0.01,0.15 -0.01,0.16 v 0 0.1 l 0.01,0.09 0.01,0.09 0.01,0.09 0.02,0.08 0.02,0.08 0.02,0.07 0.03,0.07 0.03,0.07 0.04,0.06 v 0 l 0.04,0.05 0.04,0.06 0.04,0.05 0.04,0.05 0.05,0.04 0.04,0.05 0.05,0.04 0.05,0.04 0.05,0.03 0.06,0.03 v 0 l 0.06,0.03 0.06,0.03 0.06,0.02 0.06,0.03 0.06,0.02 0.07,0.01 0.06,0.02 0.07,0.01 0.06,0.01 0.07,0.01 v 0 l 0.07,0.01 h 0.07 l 0.06,0.01 h 0.07 l 0.06,0.01 h 0.07 0.06 0.06 0.07 0.06 v 0 h 0.08 0.08 0.08 0.08 0.08 l 0.08,-0.01 h 0.08 l 0.08,-0.01 h 0.08 l 0.08,-0.01 v 0 l 0.09,-0.01 0.08,-0.01 0.08,-0.01 0.08,-0.02 0.07,-0.01 0.08,-0.01 0.07,-0.02 0.07,-0.01 0.07,-0.02 0.06,-0.02 z m 0,-1.66 v 0 -0.19 l -0.02,-0.18 -0.02,-0.17 -0.04,-0.16 -0.05,-0.15 -0.05,-0.13 -0.07,-0.12 -0.08,-0.11 -0.08,-0.1 -0.1,-0.09 v 0 l -0.11,-0.07 -0.11,-0.07 -0.13,-0.06 -0.13,-0.05 -0.15,-0.04 -0.15,-0.04 -0.16,-0.02 -0.17,-0.02 -0.18,-0.01 -0.19,-0.01 v 0 h -0.12 l -0.12,0.01 h -0.12 l -0.11,0.01 -0.12,0.01 -0.11,0.01 -0.11,0.01 -0.11,0.02 -0.11,0.02 -0.1,0.01 v 0 l -0.1,0.02 -0.11,0.02 -0.1,0.02 -0.1,0.02 -0.1,0.03 -0.1,0.02 -0.1,0.03 -0.1,0.02 -0.1,0.03 -0.1,0.03 v 0 L 40.98,42.7 40.92,42.58 40.88,42.46 40.83,42.33 40.8,42.19 40.77,42.06 40.75,41.92 40.73,41.77 40.72,41.62 v -0.16 0 l 0.11,-0.03 0.12,-0.04 0.13,-0.03 0.12,-0.03 0.13,-0.03 0.13,-0.03 0.13,-0.03 0.13,-0.02 0.14,-0.02 0.14,-0.03 v 0 l 0.14,-0.01 0.14,-0.02 0.13,-0.02 0.14,-0.01 0.13,-0.01 0.14,-0.01 0.13,-0.01 h 0.13 l 0.14,-0.01 h 0.13 v 0 l 0.33,0.01 0.32,0.02 0.3,0.04 0.28,0.06 0.27,0.07 0.25,0.08 0.23,0.11 0.22,0.11 0.21,0.14 0.18,0.15 v 0 l 0.17,0.16 0.15,0.18 0.13,0.2 0.12,0.22 0.1,0.24 0.08,0.26 0.06,0.27 0.04,0.3 0.03,0.31 0.01,0.33 v 5.48 0 l -0.12,0.03 -0.13,0.03 -0.13,0.02 -0.14,0.03 -0.14,0.03 -0.15,0.03 -0.15,0.02 -0.16,0.03 -0.16,0.03 -0.17,0.03 v 0 l -0.17,0.03 -0.18,0.02 -0.17,0.02 -0.17,0.02 -0.17,0.02 -0.18,0.02 -0.17,0.01 h -0.18 l -0.18,0.01 h -0.17 v 0 H 43.47 L 43.31,50.23 H 43.15 L 42.99,50.22 42.84,50.2 42.69,50.18 42.54,50.16 42.4,50.14 42.25,50.12 42.12,50.09 v 0 l -0.13,-0.04 -0.13,-0.03 -0.13,-0.04 -0.12,-0.05 -0.11,-0.04 -0.11,-0.06 -0.11,-0.05 -0.11,-0.06 -0.1,-0.06 -0.1,-0.07 v 0 l -0.09,-0.07 -0.08,-0.07 -0.09,-0.08 -0.07,-0.08 -0.08,-0.09 -0.07,-0.09 -0.06,-0.09 -0.06,-0.1 -0.06,-0.1 -0.05,-0.1 v 0 L 40.21,48.61 40.16,48.5 40.13,48.38 40.09,48.26 40.06,48.14 40.04,48.01 40.02,47.87 40.01,47.73 40,47.59 v -0.15 0 -0.14 l 0.01,-0.15 0.02,-0.13 0.02,-0.14 0.02,-0.13 0.03,-0.12 0.04,-0.13 0.05,-0.11 0.04,-0.12 0.06,-0.11 v 0 l 0.06,-0.11 0.07,-0.11 0.07,-0.1 0.08,-0.1 0.08,-0.09 0.08,-0.09 0.09,-0.09 0.09,-0.08 0.1,-0.08 0.1,-0.07 v 0 l 0.1,-0.08 0.11,-0.06 0.11,-0.07 0.11,-0.06 0.12,-0.06 0.12,-0.05 0.12,-0.05 0.13,-0.04 0.13,-0.04 0.13,-0.04 v 0 l 0.13,-0.03 0.14,-0.04 0.13,-0.02 0.14,-0.03 0.14,-0.02 0.14,-0.02 0.14,-0.01 0.15,-0.01 h 0.14 l 0.15,-0.01 v 0 h 0.1 l 0.11,0.01 h 0.1 0.09 0.09 l 0.09,0.01 h 0.08 l 0.08,0.01 h 0.07 l 0.08,0.01 v 0 h 0.07 l 0.06,0.01 h 0.07 0.06 l 0.06,0.01 h 0.06 l 0.06,0.01 0.05,0.01 h 0.05 l 0.05,0.01 z"
     style="display:inline;fill:#cc0000;fill-rule:nonzero;stroke:none;stroke-width:0.75"
     id="path15158" />
  <path
     d="m 49.36,37.52 v 0 l 0.03,-0.01 h 0.04 l 0.04,-0.01 h 0.04 l 0.04,-0.01 h 0.04 l 0.04,-0.01 h 0.05 l 0.04,-0.01 h 0.04 v 0 h 0.05 l 0.05,-0.01 h 0.04 0.05 0.04 0.04 l 0.04,-0.01 h 0.04 0.04 0.04 v 0 h 0.04 0.04 0.04 l 0.04,0.01 h 0.04 0.05 0.04 0.04 l 0.05,0.01 h 0.05 v 0 h 0.05 l 0.04,0.01 h 0.05 l 0.04,0.01 h 0.04 l 0.05,0.01 h 0.04 l 0.04,0.01 h 0.04 l 0.04,0.01 v 4.82 0 l 0.06,-0.11 0.07,-0.09 0.08,-0.1 0.09,-0.09 0.09,-0.09 0.1,-0.09 0.1,-0.08 0.12,-0.09 0.11,-0.08 0.13,-0.07 v 0 l 0.13,-0.07 0.14,-0.07 0.15,-0.05 0.14,-0.05 0.16,-0.04 0.16,-0.04 0.16,-0.02 0.17,-0.02 0.18,-0.01 0.18,-0.01 v 0 h 0.16 l 0.15,0.01 0.15,0.02 0.15,0.01 0.15,0.03 0.14,0.02 0.14,0.04 0.14,0.04 0.14,0.04 0.13,0.05 v 0 l 0.13,0.05 0.13,0.06 0.13,0.07 0.12,0.07 0.11,0.08 0.11,0.08 0.11,0.09 0.11,0.09 0.1,0.1 0.1,0.11 v 0 l 0.09,0.11 0.09,0.11 0.08,0.13 0.08,0.12 0.08,0.14 0.07,0.14 0.07,0.14 0.06,0.15 0.06,0.16 0.05,0.17 v 0 l 0.05,0.16 0.05,0.18 0.04,0.18 0.04,0.18 0.03,0.19 0.02,0.2 0.02,0.2 0.01,0.21 0.01,0.22 v 0.22 0 l -0.01,0.44 -0.04,0.43 -0.06,0.4 -0.09,0.38 -0.12,0.36 -0.14,0.35 -0.16,0.32 -0.2,0.31 -0.21,0.28 -0.25,0.27 v 0 l -0.26,0.24 -0.29,0.21 -0.31,0.19 -0.33,0.16 -0.35,0.14 -0.38,0.12 -0.4,0.09 -0.42,0.06 -0.44,0.04 -0.47,0.01 v 0 H 52.09 L 51.94,50.23 H 51.78 L 51.63,50.22 51.48,50.2 51.32,50.18 51.16,50.16 51.01,50.14 50.85,50.12 50.69,50.09 v 0 L 50.53,50.06 50.38,50.03 50.24,50 50.1,49.97 49.96,49.94 49.83,49.9 49.7,49.87 49.58,49.83 49.47,49.8 49.36,49.76 Z m 1.69,11.1 v 0 l 0.06,0.02 0.06,0.02 0.06,0.01 0.07,0.02 0.06,0.02 0.07,0.01 0.06,0.02 0.07,0.01 0.07,0.01 0.06,0.01 v 0 l 0.08,0.01 h 0.07 l 0.07,0.01 h 0.07 l 0.08,0.01 h 0.07 0.07 0.08 l 0.07,0.01 h 0.08 v 0 l 0.12,-0.01 h 0.13 l 0.12,-0.01 0.12,-0.01 0.11,-0.02 0.12,-0.02 0.11,-0.03 0.11,-0.02 0.11,-0.04 0.11,-0.03 v 0 l 0.11,-0.04 0.1,-0.05 0.1,-0.05 0.1,-0.06 0.1,-0.05 0.09,-0.07 0.09,-0.06 0.08,-0.07 0.09,-0.07 0.08,-0.08 v 0 l 0.07,-0.08 0.08,-0.09 0.07,-0.09 0.06,-0.1 0.07,-0.1 0.06,-0.1 0.05,-0.11 0.06,-0.12 0.05,-0.11 0.04,-0.12 v 0 l 0.05,-0.13 0.04,-0.14 0.03,-0.13 0.04,-0.14 0.02,-0.15 0.02,-0.15 0.02,-0.16 0.01,-0.16 0.01,-0.16 v -0.17 0 -0.28 L 55.36,44.97 55.34,44.72 55.3,44.48 55.26,44.25 55.2,44.04 55.14,43.84 55.06,43.65 54.98,43.47 54.89,43.31 v 0 l -0.11,-0.15 -0.12,-0.13 -0.13,-0.12 -0.14,-0.1 -0.16,-0.09 -0.17,-0.07 -0.18,-0.06 -0.2,-0.04 -0.21,-0.02 -0.22,-0.01 v 0 h -0.08 l -0.08,0.01 -0.08,0.01 -0.08,0.01 -0.08,0.01 -0.07,0.01 -0.08,0.02 -0.08,0.02 -0.08,0.02 -0.08,0.03 v 0 l -0.07,0.03 -0.08,0.02 -0.07,0.04 -0.07,0.03 -0.07,0.04 -0.07,0.04 -0.07,0.05 -0.07,0.05 -0.06,0.05 -0.07,0.06 v 0 l -0.06,0.06 -0.06,0.06 -0.06,0.06 -0.06,0.07 -0.05,0.07 -0.05,0.08 -0.05,0.08 -0.05,0.09 -0.04,0.09 -0.05,0.09 v 0 l -0.03,0.1 -0.03,0.09 -0.03,0.11 -0.03,0.1 -0.02,0.11 -0.01,0.12 -0.02,0.12 -0.01,0.12 v 0.13 0.13 z"
     style="display:inline;fill:#cc0000;fill-rule:nonzero;stroke:none;stroke-width:0.75"
     id="path15160" />
  <path
     d="m 63,50.24 v 0 H 62.79 L 62.6,50.23 62.4,50.21 62.22,50.19 62.04,50.15 61.86,50.12 61.69,50.07 61.52,50.02 61.36,49.96 61.2,49.9 v 0 l -0.15,-0.08 -0.14,-0.08 -0.15,-0.08 -0.13,-0.09 -0.13,-0.09 -0.13,-0.1 -0.12,-0.11 -0.11,-0.11 -0.11,-0.11 -0.11,-0.12 v 0 L 59.82,48.8 59.73,48.67 59.64,48.54 59.55,48.4 59.47,48.26 59.4,48.11 59.33,47.96 59.27,47.8 59.21,47.64 59.15,47.47 v 0 L 59.11,47.31 59.07,47.13 59.03,46.96 59,46.78 58.98,46.6 58.95,46.42 58.94,46.24 58.92,46.05 v -0.19 -0.2 0 -0.19 -0.19 l 0.02,-0.19 0.01,-0.18 0.03,-0.18 0.02,-0.18 0.03,-0.18 0.04,-0.17 0.04,-0.18 0.04,-0.17 v 0 l 0.06,-0.16 0.06,-0.16 0.06,-0.16 0.07,-0.15 0.07,-0.15 0.08,-0.14 0.09,-0.14 0.09,-0.13 0.09,-0.13 0.1,-0.13 v 0 l 0.11,-0.12 0.11,-0.11 0.11,-0.11 0.12,-0.11 0.13,-0.1 0.13,-0.09 0.13,-0.09 0.15,-0.09 0.14,-0.07 0.15,-0.08 v 0 l 0.16,-0.07 0.16,-0.06 0.17,-0.05 0.17,-0.05 0.18,-0.04 0.18,-0.03 0.18,-0.03 0.2,-0.01 0.19,-0.01 0.21,-0.01 v 0 l 0.2,0.01 0.19,0.01 0.2,0.01 0.18,0.03 0.19,0.03 0.17,0.04 0.17,0.05 0.17,0.05 0.16,0.06 0.16,0.07 v 0 l 0.15,0.08 0.14,0.07 0.15,0.09 0.13,0.09 0.13,0.09 0.13,0.1 0.12,0.11 0.11,0.11 0.11,0.11 0.11,0.12 v 0 l 0.1,0.13 0.09,0.13 0.09,0.13 0.08,0.14 0.08,0.14 0.07,0.15 0.07,0.15 0.06,0.16 0.06,0.16 0.05,0.16 v 0 l 0.05,0.17 0.04,0.18 0.04,0.17 0.03,0.18 0.03,0.18 0.02,0.18 0.02,0.18 0.02,0.19 v 0.19 l 0.01,0.19 v 0 l -0.01,0.2 v 0.19 l -0.02,0.19 -0.02,0.18 -0.02,0.18 -0.03,0.18 -0.03,0.18 -0.04,0.17 -0.04,0.18 -0.05,0.16 v 0 l -0.05,0.17 -0.06,0.16 -0.06,0.16 -0.07,0.15 -0.07,0.15 -0.08,0.14 -0.08,0.14 -0.09,0.13 -0.09,0.13 -0.1,0.13 v 0 l -0.11,0.12 -0.11,0.11 -0.11,0.11 -0.12,0.11 -0.13,0.1 -0.13,0.09 -0.13,0.09 -0.15,0.08 -0.14,0.08 -0.15,0.08 v 0 l -0.16,0.06 -0.16,0.06 -0.17,0.05 -0.17,0.05 -0.17,0.03 -0.19,0.04 -0.18,0.02 -0.2,0.02 -0.19,0.01 z m 0,-1.35 v 0 l 0.22,-0.01 0.22,-0.02 0.21,-0.05 0.19,-0.06 0.18,-0.07 0.17,-0.1 0.15,-0.11 0.15,-0.13 0.13,-0.14 0.12,-0.16 v 0 l 0.1,-0.18 0.1,-0.19 0.08,-0.2 0.08,-0.22 0.06,-0.23 0.05,-0.25 0.04,-0.25 0.03,-0.27 0.01,-0.29 0.01,-0.3 v 0 l -0.01,-0.29 -0.01,-0.29 -0.03,-0.27 -0.04,-0.25 -0.05,-0.24 -0.06,-0.23 -0.08,-0.22 -0.08,-0.2 -0.1,-0.19 -0.1,-0.17 v 0 L 64.62,43.15 64.49,43 64.34,42.87 64.19,42.76 64.02,42.67 63.84,42.59 63.65,42.53 63.44,42.49 63.22,42.46 H 63 v 0 h -0.23 l -0.22,0.03 -0.21,0.04 -0.19,0.06 -0.18,0.08 -0.17,0.09 -0.15,0.11 -0.15,0.13 -0.13,0.15 -0.12,0.16 v 0 l -0.1,0.17 -0.09,0.19 -0.08,0.2 -0.08,0.22 -0.06,0.23 -0.04,0.24 -0.04,0.25 -0.03,0.27 -0.02,0.29 v 0.29 0 0.3 l 0.02,0.29 0.03,0.27 0.04,0.25 0.04,0.25 0.06,0.23 0.08,0.22 0.08,0.2 0.09,0.19 0.1,0.18 v 0 l 0.12,0.16 0.13,0.14 0.15,0.13 0.15,0.11 0.17,0.1 0.18,0.07 0.19,0.06 0.21,0.05 0.22,0.02 z"
     style="display:inline;fill:#cc0000;fill-rule:nonzero;stroke:none;stroke-width:0.75"
     id="path15162" />
  <path
     d="m 74.91,37.52 v 0 l 0.04,-0.01 h 0.04 l 0.04,-0.01 h 0.04 l 0.04,-0.01 h 0.05 l 0.04,-0.01 h 0.04 l 0.05,-0.01 h 0.05 v 0 h 0.05 l 0.04,-0.01 h 0.05 0.04 0.04 0.04 l 0.04,-0.01 h 0.04 0.03 0.04 v 0 h 0.04 0.03 0.04 l 0.04,0.01 h 0.04 0.05 0.04 0.04 l 0.04,0.01 h 0.05 v 0 h 0.04 l 0.05,0.01 h 0.05 l 0.04,0.01 h 0.04 l 0.05,0.01 h 0.04 l 0.04,0.01 h 0.04 l 0.03,0.01 v 12.28 0 l -0.13,0.03 -0.13,0.04 -0.14,0.03 -0.14,0.04 -0.14,0.03 -0.15,0.03 -0.15,0.03 -0.15,0.02 -0.16,0.03 -0.16,0.02 v 0 l -0.16,0.03 -0.17,0.02 -0.16,0.02 -0.18,0.02 -0.18,0.02 -0.18,0.01 -0.18,0.01 h -0.19 l -0.19,0.01 h -0.2 v 0 H 73.16 L 72.98,50.23 72.8,50.22 72.62,50.2 72.44,50.18 72.27,50.16 72.09,50.13 71.92,50.1 71.75,50.06 71.58,50.02 v 0 l -0.16,-0.05 -0.16,-0.06 -0.15,-0.06 -0.15,-0.07 -0.15,-0.07 -0.14,-0.08 -0.13,-0.09 -0.14,-0.09 -0.13,-0.1 -0.12,-0.1 v 0 L 70.03,49.14 69.91,49.03 69.8,48.9 69.7,48.78 69.6,48.64 69.5,48.5 69.41,48.36 69.33,48.21 69.25,48.05 69.18,47.88 v 0 l -0.07,-0.17 -0.06,-0.18 -0.06,-0.18 -0.04,-0.2 -0.04,-0.2 -0.04,-0.21 -0.02,-0.22 -0.02,-0.23 -0.01,-0.23 v -0.24 0 -0.21 l 0.01,-0.21 0.01,-0.2 0.03,-0.2 0.02,-0.19 0.04,-0.19 0.04,-0.19 0.04,-0.19 0.06,-0.17 0.05,-0.18 v 0 l 0.07,-0.17 0.07,-0.17 0.08,-0.16 0.08,-0.16 0.09,-0.15 0.1,-0.14 0.09,-0.14 0.11,-0.14 0.11,-0.13 0.11,-0.13 v 0 l 0.12,-0.12 0.12,-0.12 0.13,-0.11 0.13,-0.11 0.13,-0.1 0.15,-0.09 0.14,-0.09 0.15,-0.08 0.15,-0.08 0.16,-0.07 v 0 l 0.17,-0.06 0.17,-0.06 0.17,-0.05 0.17,-0.05 0.18,-0.04 0.19,-0.03 0.18,-0.02 0.19,-0.02 0.19,-0.01 h 0.2 v 0 h 0.09 0.09 l 0.09,0.01 h 0.09 l 0.09,0.01 h 0.08 l 0.09,0.01 0.09,0.01 0.09,0.01 0.09,0.02 v 0 l 0.09,0.01 0.09,0.02 0.08,0.01 0.09,0.02 0.08,0.01 0.08,0.02 0.08,0.02 0.07,0.02 0.07,0.02 0.07,0.02 z m 0,5.24 v 0 L 74.84,42.74 74.77,42.71 74.7,42.69 74.63,42.66 74.56,42.64 74.48,42.62 74.41,42.6 74.33,42.59 74.26,42.57 74.18,42.56 v 0 L 74.1,42.54 74.02,42.53 73.94,42.52 73.85,42.51 H 73.77 L 73.68,42.5 h -0.09 l -0.08,-0.01 h -0.09 -0.1 v 0 h -0.13 l -0.14,0.01 -0.13,0.01 -0.13,0.02 -0.12,0.02 -0.12,0.03 -0.11,0.03 -0.12,0.04 -0.1,0.05 -0.11,0.05 v 0 l -0.1,0.05 -0.1,0.06 -0.09,0.06 -0.09,0.06 -0.09,0.07 -0.08,0.07 -0.08,0.08 -0.08,0.08 -0.07,0.08 -0.07,0.09 v 0 l -0.07,0.09 -0.06,0.09 -0.05,0.1 -0.06,0.1 -0.05,0.1 -0.05,0.11 -0.04,0.11 -0.04,0.11 -0.04,0.12 -0.04,0.12 v 0 l -0.03,0.12 -0.02,0.13 -0.03,0.12 -0.02,0.13 -0.01,0.13 -0.02,0.13 -0.01,0.14 v 0.14 l -0.01,0.14 v 0.14 0 l 0.01,0.31 0.03,0.3 0.04,0.28 0.05,0.26 0.07,0.24 0.08,0.22 0.1,0.21 0.12,0.18 0.12,0.17 0.15,0.15 v 0 l 0.15,0.13 0.17,0.12 0.18,0.11 0.19,0.09 0.2,0.07 0.21,0.07 0.22,0.05 0.23,0.03 0.24,0.02 0.26,0.01 v 0 h 0.08 0.09 0.09 l 0.08,-0.01 h 0.08 0.08 l 0.08,-0.01 h 0.08 l 0.08,-0.01 h 0.08 v 0 l 0.07,-0.01 0.07,-0.02 0.07,-0.01 0.07,-0.01 0.07,-0.01 0.07,-0.02 0.06,-0.01 0.06,-0.02 0.06,-0.01 0.06,-0.02 z"
     style="display:inline;fill:#348813;fill-opacity:1;fill-rule:nonzero;stroke:none;stroke-width:0.75"
     id="path15164" />
  <path
     d="m 80.56,46.07 v 0 l 0.02,0.28 0.02,0.27 0.04,0.25 0.06,0.23 0.06,0.22 0.08,0.2 0.1,0.19 0.1,0.17 0.12,0.15 0.14,0.14 v 0 l 0.15,0.13 0.16,0.11 0.18,0.1 0.19,0.09 0.2,0.07 0.22,0.06 0.23,0.05 0.24,0.03 0.26,0.02 0.27,0.01 v 0 h 0.24 l 0.24,-0.02 0.23,-0.02 0.24,-0.03 0.23,-0.04 0.23,-0.04 0.22,-0.06 0.23,-0.06 0.22,-0.08 0.22,-0.08 v 0 l 0.03,0.06 0.02,0.05 0.03,0.06 0.02,0.06 0.02,0.06 0.03,0.06 0.02,0.07 0.02,0.07 0.02,0.07 0.01,0.07 v 0 l 0.02,0.08 0.01,0.07 0.02,0.07 0.01,0.07 0.01,0.07 0.01,0.07 0.01,0.08 0.01,0.07 v 0.07 l 0.01,0.07 v 0 l -0.12,0.05 -0.12,0.04 -0.11,0.04 -0.12,0.04 -0.13,0.04 -0.12,0.04 -0.13,0.03 -0.13,0.03 -0.14,0.03 -0.13,0.02 v 0 l -0.14,0.02 -0.13,0.02 -0.14,0.02 -0.15,0.02 -0.15,0.01 -0.15,0.01 -0.15,0.01 h -0.15 l -0.16,0.01 h -0.17 v 0 h -0.23 l -0.23,-0.01 -0.22,-0.02 -0.22,-0.02 -0.21,-0.03 -0.2,-0.04 -0.19,-0.04 -0.19,-0.05 -0.18,-0.05 -0.18,-0.06 v 0 l -0.16,-0.08 -0.16,-0.07 -0.16,-0.08 -0.15,-0.09 -0.15,-0.09 -0.13,-0.1 -0.14,-0.1 -0.13,-0.1 -0.12,-0.12 -0.11,-0.11 v 0 l -0.11,-0.13 -0.1,-0.13 -0.09,-0.13 -0.09,-0.14 -0.09,-0.14 -0.07,-0.14 -0.07,-0.15 -0.07,-0.16 -0.06,-0.16 -0.05,-0.16 v 0 L 78.98,47.37 78.93,47.2 78.9,47.03 78.86,46.85 78.83,46.67 78.81,46.48 78.79,46.3 78.78,46.11 78.77,45.91 v -0.19 0 -0.2 l 0.01,-0.19 0.01,-0.19 0.02,-0.18 0.02,-0.18 0.03,-0.18 0.03,-0.18 0.03,-0.17 0.04,-0.18 0.05,-0.16 v 0 l 0.05,-0.17 0.06,-0.17 0.07,-0.15 0.06,-0.16 0.08,-0.15 0.08,-0.14 0.08,-0.14 0.09,-0.14 0.1,-0.13 0.1,-0.12 v 0 l 0.1,-0.13 0.11,-0.11 0.12,-0.12 0.12,-0.1 0.12,-0.11 0.13,-0.09 0.14,-0.09 0.14,-0.09 0.15,-0.08 0.15,-0.07 v 0 l 0.16,-0.07 0.16,-0.07 0.17,-0.05 0.18,-0.05 0.18,-0.04 0.19,-0.04 0.19,-0.02 0.2,-0.02 0.2,-0.01 0.21,-0.01 v 0 l 0.18,0.01 h 0.17 l 0.17,0.02 0.17,0.02 0.16,0.03 0.16,0.03 0.15,0.04 0.15,0.05 0.14,0.05 0.14,0.06 v 0 l 0.13,0.06 0.13,0.07 0.13,0.08 0.12,0.07 0.12,0.09 0.11,0.08 0.11,0.1 0.1,0.09 0.1,0.11 0.09,0.1 v 0 l 0.09,0.11 0.09,0.11 0.08,0.12 0.08,0.12 0.07,0.13 0.07,0.13 0.06,0.13 0.06,0.14 0.05,0.15 0.05,0.14 v 0 l 0.05,0.15 0.04,0.15 0.03,0.16 0.04,0.15 0.02,0.16 0.02,0.16 0.02,0.17 0.01,0.17 0.01,0.17 v 0.17 0 0.05 0.05 0.04 0.05 0.06 0.05 l -0.01,0.05 v 0.05 0.06 l -0.01,0.05 v 0 0.05 0.05 l -0.01,0.05 v 0.04 0.05 l -0.01,0.04 V 45.96 46 l -0.01,0.04 v 0.03 z m 4.34,-1.26 v 0 -0.09 l -0.01,-0.1 v -0.09 l -0.01,-0.09 -0.02,-0.09 -0.01,-0.09 -0.02,-0.09 -0.02,-0.09 -0.02,-0.09 -0.03,-0.08 v 0 L 84.74,43.82 84.71,43.73 84.68,43.65 84.64,43.57 84.61,43.49 84.57,43.42 84.53,43.34 84.48,43.27 84.44,43.2 84.39,43.14 v 0 L 84.34,43.07 84.28,43.01 84.23,42.96 84.17,42.9 84.11,42.85 84.04,42.8 83.98,42.75 83.91,42.71 83.83,42.66 83.75,42.63 v 0 l -0.07,-0.04 -0.08,-0.04 -0.08,-0.03 -0.09,-0.03 -0.09,-0.02 -0.09,-0.02 -0.1,-0.01 -0.09,-0.01 -0.11,-0.01 h -0.1 v 0 l -0.2,0.01 -0.2,0.02 -0.18,0.03 -0.18,0.04 -0.16,0.06 -0.16,0.07 -0.14,0.08 -0.14,0.1 -0.13,0.1 -0.12,0.12 v 0 l -0.1,0.13 -0.1,0.15 -0.08,0.15 -0.08,0.16 -0.07,0.17 -0.07,0.18 -0.05,0.19 -0.05,0.2 -0.03,0.21 -0.03,0.22 z"
     style="display:inline;fill:#348813;fill-opacity:1;fill-rule:nonzero;stroke:none;stroke-width:0.75"
     id="path15166" />
  <path
     d="m 94.63,48.52 v 0 l 0.03,0.04 0.02,0.06 0.03,0.05 0.02,0.06 0.03,0.05 0.02,0.07 0.02,0.06 0.03,0.06 0.02,0.07 0.02,0.07 v 0 l 0.02,0.07 0.02,0.08 0.01,0.07 0.02,0.07 0.01,0.08 0.01,0.07 0.01,0.07 0.01,0.08 v 0.07 l 0.01,0.08 v 0 l -0.21,0.07 -0.21,0.07 -0.21,0.06 -0.22,0.05 -0.23,0.04 -0.24,0.04 -0.23,0.02 -0.25,0.02 -0.25,0.02 h -0.26 v 0 l -0.42,-0.01 -0.41,-0.04 -0.38,-0.06 -0.36,-0.09 -0.34,-0.11 -0.32,-0.13 -0.3,-0.16 -0.27,-0.19 -0.26,-0.21 -0.23,-0.23 v 0 l -0.21,-0.26 -0.19,-0.27 -0.17,-0.29 -0.14,-0.31 -0.12,-0.33 -0.1,-0.34 -0.08,-0.36 -0.06,-0.38 -0.03,-0.39 -0.01,-0.42 v 0 -0.19 l 0.01,-0.19 0.01,-0.19 0.02,-0.18 0.03,-0.18 0.03,-0.18 0.03,-0.18 0.04,-0.17 0.05,-0.18 0.05,-0.17 v 0 l 0.06,-0.16 0.06,-0.16 0.07,-0.16 0.07,-0.15 0.08,-0.15 0.08,-0.14 0.09,-0.14 0.09,-0.13 0.1,-0.13 0.1,-0.13 v 0 l 0.12,-0.12 0.11,-0.11 0.12,-0.11 0.13,-0.11 0.13,-0.1 0.14,-0.09 0.14,-0.09 0.15,-0.09 0.15,-0.07 0.16,-0.08 v 0 l 0.17,-0.07 0.16,-0.06 0.18,-0.05 0.18,-0.05 0.18,-0.04 0.19,-0.03 0.19,-0.03 0.2,-0.01 0.2,-0.01 0.21,-0.01 v 0 h 0.15 l 0.13,0.01 h 0.14 l 0.13,0.01 h 0.13 l 0.12,0.01 0.12,0.01 0.12,0.02 0.12,0.01 0.11,0.02 v 0 l 0.11,0.02 0.1,0.02 0.11,0.02 0.11,0.02 0.1,0.03 0.1,0.03 0.11,0.03 0.1,0.03 0.1,0.03 0.1,0.04 v 0 0.06 l -0.01,0.06 v 0.06 l -0.01,0.07 v 0.07 l -0.01,0.07 -0.01,0.07 -0.02,0.07 -0.01,0.08 -0.02,0.07 v 0 l -0.01,0.08 -0.02,0.07 -0.01,0.07 -0.02,0.07 -0.02,0.07 -0.02,0.06 -0.03,0.07 -0.02,0.06 -0.03,0.06 -0.02,0.06 v 0 l -0.17,-0.06 -0.18,-0.05 -0.18,-0.04 -0.18,-0.04 -0.19,-0.03 -0.19,-0.02 -0.2,-0.02 -0.2,-0.02 -0.21,-0.01 h -0.21 v 0 l -0.26,0.01 -0.24,0.02 -0.23,0.05 -0.22,0.06 -0.2,0.08 -0.19,0.09 -0.18,0.12 -0.16,0.13 -0.15,0.14 -0.14,0.17 v 0 l -0.12,0.18 -0.11,0.19 -0.1,0.2 -0.08,0.22 -0.07,0.22 -0.06,0.24 -0.05,0.24 -0.03,0.26 -0.02,0.27 -0.01,0.28 v 0 l 0.01,0.32 0.02,0.31 0.04,0.28 0.05,0.27 0.07,0.25 0.08,0.23 0.09,0.21 0.11,0.2 0.13,0.18 0.14,0.16 v 0 l 0.15,0.14 0.16,0.13 0.18,0.11 0.18,0.1 0.2,0.08 0.21,0.07 0.21,0.06 0.23,0.03 0.24,0.03 h 0.25 v 0 h 0.1 0.1 0.1 l 0.1,-0.01 h 0.09 l 0.1,-0.01 0.09,-0.01 0.09,-0.01 0.09,-0.01 0.08,-0.02 v 0 l 0.09,-0.01 0.09,-0.02 0.09,-0.02 0.09,-0.02 0.09,-0.02 0.08,-0.02 0.09,-0.03 0.09,-0.03 0.09,-0.03 z"
     style="display:inline;fill:#348813;fill-opacity:1;fill-rule:nonzero;stroke:none;stroke-width:0.75"
     id="path15168" />
  <path
     d="m 100.5,50.24 v 0 h -0.2 l -0.2,-0.01 -0.19,-0.02 -0.19,-0.02 -0.18,-0.04 -0.18,-0.03 -0.17,-0.05 -0.16,-0.05 -0.16,-0.06 -0.16,-0.06 v 0 l -0.15,-0.08 -0.15,-0.08 -0.14,-0.08 -0.13,-0.09 -0.13,-0.09 -0.13,-0.1 -0.12,-0.11 -0.12,-0.11 -0.11,-0.11 -0.1,-0.12 v 0 L 97.33,48.8 97.23,48.67 97.14,48.54 97.06,48.4 96.98,48.26 96.91,48.11 96.84,47.96 96.77,47.8 96.71,47.64 96.66,47.47 v 0 L 96.62,47.31 96.57,47.13 96.54,46.96 96.51,46.78 96.48,46.6 96.46,46.42 96.44,46.24 96.43,46.05 96.42,45.86 v -0.2 0 -0.19 l 0.01,-0.19 0.01,-0.19 0.02,-0.18 0.02,-0.18 0.03,-0.18 0.03,-0.18 0.03,-0.17 0.05,-0.18 0.04,-0.17 v 0 l 0.05,-0.16 0.06,-0.16 0.07,-0.16 0.07,-0.15 0.07,-0.15 0.08,-0.14 0.08,-0.14 0.09,-0.13 0.1,-0.13 0.1,-0.13 v 0 l 0.1,-0.12 0.11,-0.11 0.12,-0.11 0.12,-0.11 0.13,-0.1 0.13,-0.09 0.13,-0.09 0.14,-0.09 0.15,-0.07 0.15,-0.08 v 0 l 0.16,-0.07 0.16,-0.06 0.16,-0.05 0.17,-0.05 0.18,-0.04 0.18,-0.03 0.19,-0.03 0.19,-0.01 0.2,-0.01 0.2,-0.01 v 0 l 0.2,0.01 0.2,0.01 0.19,0.01 0.19,0.03 0.18,0.03 0.18,0.04 0.17,0.05 0.17,0.05 0.16,0.06 0.15,0.07 v 0 l 0.16,0.08 0.14,0.07 0.14,0.09 0.14,0.09 0.13,0.09 0.12,0.1 0.12,0.11 0.12,0.11 0.11,0.11 0.1,0.12 v 0 l 0.1,0.13 0.1,0.13 0.09,0.13 0.08,0.14 0.08,0.14 0.07,0.15 0.07,0.15 0.06,0.16 0.06,0.16 0.05,0.16 v 0 l 0.04,0.17 0.05,0.18 0.04,0.17 0.03,0.18 0.03,0.18 0.02,0.18 0.02,0.18 0.01,0.19 0.01,0.19 v 0.19 0 0.2 l -0.01,0.19 -0.01,0.19 -0.02,0.18 -0.02,0.18 -0.03,0.18 -0.03,0.18 -0.04,0.17 -0.05,0.18 -0.04,0.16 v 0 l -0.05,0.17 -0.06,0.16 -0.06,0.16 -0.07,0.15 -0.07,0.15 -0.08,0.14 -0.08,0.14 -0.09,0.13 -0.1,0.13 -0.1,0.13 v 0 l -0.1,0.12 -0.11,0.11 -0.12,0.11 -0.12,0.11 -0.12,0.1 -0.13,0.09 -0.14,0.09 -0.14,0.08 -0.14,0.08 -0.16,0.08 v 0 l -0.15,0.06 -0.16,0.06 -0.17,0.05 -0.17,0.05 -0.18,0.03 -0.18,0.04 -0.19,0.02 -0.19,0.02 -0.2,0.01 z m 0,-1.35 v 0 l 0.23,-0.01 0.22,-0.02 0.2,-0.05 0.2,-0.06 0.18,-0.07 0.16,-0.1 0.16,-0.11 0.14,-0.13 0.13,-0.14 0.12,-0.16 v 0 l 0.11,-0.18 0.1,-0.19 0.08,-0.2 0.07,-0.22 0.07,-0.23 0.05,-0.25 0.04,-0.25 0.02,-0.27 0.02,-0.29 0.01,-0.3 v 0 l -0.01,-0.29 -0.02,-0.29 -0.02,-0.27 -0.04,-0.25 -0.05,-0.24 -0.07,-0.23 -0.07,-0.22 -0.08,-0.2 -0.1,-0.19 -0.11,-0.17 v 0 l -0.12,-0.16 -0.13,-0.15 -0.14,-0.13 -0.16,-0.11 -0.16,-0.09 -0.18,-0.08 -0.2,-0.06 -0.2,-0.04 -0.22,-0.03 h -0.23 v 0 h -0.23 l -0.21,0.03 -0.21,0.04 -0.19,0.06 -0.18,0.08 -0.17,0.09 -0.16,0.11 -0.14,0.13 -0.13,0.15 -0.12,0.16 v 0 l -0.1,0.17 -0.1,0.19 -0.08,0.2 -0.07,0.22 -0.06,0.23 -0.05,0.24 -0.04,0.25 -0.02,0.27 -0.02,0.29 -0.01,0.29 v 0 l 0.01,0.3 0.02,0.29 0.02,0.27 0.04,0.25 0.05,0.25 0.06,0.23 0.07,0.22 0.08,0.2 0.1,0.19 0.1,0.18 v 0 l 0.12,0.16 0.13,0.14 0.14,0.13 0.16,0.11 0.17,0.1 0.18,0.07 0.19,0.06 0.21,0.05 0.21,0.02 z"
     style="display:inline;fill:#348813;fill-opacity:1;fill-rule:nonzero;stroke:none;stroke-width:0.75"
     id="path15170" />
  <path
     d="m 106.8,41.28 v 0 l 0.04,-0.01 0.04,-0.01 h 0.03 l 0.04,-0.01 h 0.03 l 0.04,-0.01 h 0.04 l 0.03,-0.01 h 0.04 0.03 v 0 l 0.04,-0.01 h 0.03 0.04 l 0.04,-0.01 h 0.04 0.04 0.03 0.04 0.04 0.04 v 0 h 0.03 0.04 0.03 0.04 0.03 0.04 l 0.03,0.01 h 0.03 0.04 l 0.03,0.01 v 0 h 0.03 0.04 l 0.03,0.01 h 0.04 l 0.03,0.01 h 0.04 l 0.03,0.01 h 0.04 l 0.04,0.01 0.04,0.01 v 0 l 0.01,0.05 0.01,0.06 0.01,0.06 0.01,0.06 0.01,0.07 0.01,0.07 0.01,0.08 0.01,0.08 0.01,0.08 0.01,0.09 v 0 l 0.01,0.08 0.01,0.08 v 0.08 l 0.01,0.08 0.01,0.07 v 0.07 0.07 l 0.01,0.06 v 0.06 0.06 0 l 0.03,-0.05 0.04,-0.06 0.04,-0.06 0.04,-0.06 0.04,-0.06 0.04,-0.05 0.05,-0.06 0.05,-0.06 0.05,-0.06 0.05,-0.06 v 0 l 0.05,-0.05 0.06,-0.06 0.06,-0.05 0.06,-0.06 0.06,-0.05 0.06,-0.05 0.06,-0.05 0.07,-0.05 0.06,-0.04 0.07,-0.05 v 0 l 0.07,-0.05 0.07,-0.04 0.07,-0.04 0.08,-0.04 0.08,-0.04 0.08,-0.04 0.08,-0.03 0.08,-0.04 0.09,-0.03 0.09,-0.02 v 0 l 0.09,-0.03 0.09,-0.03 0.09,-0.02 0.09,-0.02 0.1,-0.02 0.1,-0.01 0.1,-0.01 0.1,-0.01 0.1,-0.01 h 0.11 v 0 l 0.29,0.01 0.28,0.03 0.26,0.04 0.24,0.06 0.23,0.08 0.22,0.1 0.2,0.11 0.18,0.13 0.17,0.15 0.15,0.16 v 0 l 0.13,0.18 0.13,0.2 0.1,0.21 0.1,0.23 0.08,0.25 0.06,0.26 0.05,0.28 0.04,0.29 0.02,0.32 v 0.33 5.54 0 l -0.03,0.01 -0.04,0.01 h -0.04 l -0.04,0.01 h -0.05 l -0.04,0.01 h -0.04 l -0.05,0.01 h -0.04 l -0.05,0.01 v 0 h -0.05 -0.05 -0.04 l -0.04,0.01 h -0.05 -0.04 -0.04 -0.04 -0.04 -0.04 v 0 h -0.04 -0.04 -0.04 -0.04 -0.04 -0.04 l -0.05,-0.01 h -0.04 -0.05 -0.05 v 0 l -0.04,-0.01 h -0.04 l -0.05,-0.01 h -0.04 l -0.04,-0.01 h -0.04 l -0.04,-0.01 h -0.04 l -0.04,-0.01 -0.04,-0.01 v -5.08 0 -0.24 l -0.01,-0.22 -0.02,-0.21 -0.03,-0.2 -0.03,-0.18 -0.04,-0.17 -0.05,-0.16 -0.06,-0.15 -0.06,-0.13 -0.07,-0.12 v 0 l -0.08,-0.11 -0.09,-0.1 -0.1,-0.08 -0.1,-0.08 -0.12,-0.06 -0.12,-0.06 -0.13,-0.04 -0.15,-0.03 -0.15,-0.01 -0.16,-0.01 v 0 h -0.09 l -0.09,0.01 -0.1,0.01 -0.09,0.01 -0.09,0.01 -0.09,0.02 -0.09,0.03 -0.09,0.02 -0.08,0.03 -0.09,0.03 v 0 l -0.08,0.04 -0.09,0.04 -0.08,0.04 -0.08,0.05 -0.07,0.05 -0.08,0.05 -0.07,0.06 -0.07,0.07 -0.07,0.06 -0.06,0.07 v 0 l -0.07,0.08 -0.06,0.07 -0.06,0.09 -0.05,0.08 -0.06,0.1 -0.05,0.09 -0.05,0.1 -0.04,0.11 -0.05,0.11 -0.04,0.11 v 0 l -0.04,0.12 -0.03,0.12 -0.03,0.12 -0.02,0.13 -0.02,0.13 -0.02,0.14 -0.01,0.15 -0.01,0.14 -0.01,0.16 v 0.16 4.43 0 l -0.04,0.01 -0.04,0.01 h -0.04 l -0.04,0.01 h -0.04 l -0.04,0.01 h -0.05 l -0.04,0.01 h -0.05 l -0.05,0.01 v 0 h -0.04 -0.04 -0.05 l -0.04,0.01 h -0.04 -0.04 -0.04 -0.04 -0.04 -0.04 v 0 h -0.03 -0.04 -0.04 -0.04 -0.05 -0.04 l -0.04,-0.01 h -0.05 -0.04 -0.05 v 0 l -0.05,-0.01 h -0.05 l -0.04,-0.01 h -0.04 L 107,50.06 h -0.04 l -0.04,-0.01 h -0.04 l -0.04,-0.01 -0.04,-0.01 z"
     style="display:inline;fill:#348813;fill-opacity:1;fill-rule:nonzero;stroke:none;stroke-width:0.75"
     id="path15172" />
  <g
     id="g16163"
     transform="matrix(0.33917931,0,0,0.33917931,32.915353,54.69682)"
     style="display:inline">
    <path
       style="fill:#003399;stroke:#000000;stroke-width:1.41732;-inkscape-stroke:none;paint-order:markers fill stroke;stop-color:#000000"
       d="m -19.338011,154.25822 c 14.6567484,1e-5 14.6567484,-145.3429856 20.9382127,-145.3429856 6.2814615,0 6.2814615,145.3429956 20.9382123,145.3429956"
       id="path1769-6"
       sodipodi:nodetypes="czc" />
    <path
       style="fill:#cc0000;stroke:#000000;stroke-width:1.41732;-inkscape-stroke:none;paint-order:markers fill stroke;stop-color:#000000"
       d="m 85.846918,154.46938 c 12.641462,0 12.641462,-66.306633 18.059232,-66.306633 5.41776,0 5.41776,66.306633 18.05921,66.306633"
       id="path1769-6-6-5"
       sodipodi:nodetypes="czc" />
    <path
       style="fill:#348813;fill-opacity:1;stroke:#000000;stroke-width:1.41732;-inkscape-stroke:none;paint-order:markers fill stroke;stop-color:#000000"
       d="m 176.07389,154.31606 c 12.64146,0 12.64146,-106.82735 18.05922,-106.82735 5.41777,0 5.41777,106.82735 18.05922,106.82735"
       id="path1769-6-6-5-8"
       sodipodi:nodetypes="czc" />
    <path
       style="fill:#348813;fill-opacity:0.65;stroke:#348813;stroke-width:1.41732;stroke-opacity:1;-inkscape-stroke:none;paint-order:markers fill stroke;stop-color:#000000"
       d="m 150.49496,154.31606 c 12.64145,0 12.64145,-106.82735 18.05921,-106.82735 5.41778,0 5.41778,106.82735 18.05923,106.82735"
       id="path1769-6-6-6"
       sodipodi:nodetypes="czc" />
    <path
       style="fill:#79a5ff;fill-opacity:0.65;stroke:#003399;stroke-width:1.41732;-inkscape-stroke:none;paint-order:markers fill stroke;stop-color:#000000"
       d="m -45.057693,154.25822 c 14.656752,1e-5 14.656752,-145.3429856 20.938219,-145.3429856 6.281464,0 6.281464,145.3429956 20.9382123,145.3429956"
       id="path1769"
       sodipodi:nodetypes="czc" />
    <path
       style="fill:#cc0000;fill-opacity:0.651911;stroke:#cc0000;stroke-width:1.41732;-inkscape-stroke:none;paint-order:markers fill stroke;stop-color:#000000"
       d="m 61.767989,154.46938 c 12.641454,0 12.641454,-66.306633 18.059219,-66.306633 5.41777,0 5.41777,66.306633 18.059224,66.306633"
       id="path1769-6-6"
       sodipodi:nodetypes="czc" />
    <path
       style="fill:none;stroke:#000000;stroke-width:1.46506;-inkscape-stroke:none;paint-order:markers fill stroke;stop-color:#000000"
       d="M -57.057694,154.3574 H 229.44231"
       id="path433" />
    <path
       id="path13935"
       style="fill:none;fill-opacity:0.65;stroke:#000000;stroke-width:0.992123;stroke-linecap:round;stroke-linejoin:round;stroke-dasharray:none;stroke-opacity:1;paint-order:fill markers stroke;stop-color:#000000"
       d="m -18.807705,12.56606 2.250003,2.250002 M -3.0577023,12.56606 H -18.807702 l 2.25,-2.249998 v 0" />
    <path
       id="path13935-5"
       style="fill:none;fill-opacity:0.65;stroke:#000000;stroke-width:0.992123;stroke-linecap:round;stroke-linejoin:round;stroke-dasharray:none;stroke-opacity:1;paint-order:fill markers stroke;stop-color:#000000"
       d="m 84.317298,91.31606 2.250003,2.250003 M 100.0673,91.31606 H 84.317301 l 2.25,-2.249997 v 0" />
    <path
       id="path13935-5-7"
       style="fill:none;fill-opacity:0.65;stroke:#000000;stroke-width:0.992123;stroke-linecap:round;stroke-linejoin:round;stroke-dasharray:none;stroke-opacity:1;paint-order:fill markers stroke;stop-color:#000000"
       d="m 173.9423,50.066058 2.25,2.250003 m 13.5,-2.250003 h -15.75 l 2.25,-2.249997 v 0" />
  </g>
</svg>
